<?xml version="1.0" encoding="iso-8859-1"?>
<!-- Generator: Adobe Illustrator 19.0.0, SVG Export Plug-In . SVG Version: 6.00 Build 0)  -->
<svg version="1.1" id="Layer_1" xmlns="http://www.w3.org/2000/svg" xmlns:xlink="http://www.w3.org/1999/xlink" x="0px" y="0px"
	 viewBox="0 0 512.002 512.002" style="enable-background:new 0 0 512.002 512.002;" xml:space="preserve">
<path style="fill:#fff;" d="M186.384,264.734c-0.119,0.954-0.2,1.918-0.2,2.904v20.416v61.037
	c-0.002,16.269,2.369,32.174,6.945,47.321c2.413,7.989,5.446,15.763,9.061,23.273c3.897,8.093,8.473,15.875,13.708,23.273
	c5.334,7.533,11.343,14.67,18.001,21.329c30.77,30.77,71.68,47.715,115.195,47.714c89.828,0,162.908-73.081,162.909-162.909v-93.094
	C512,191.836,459.798,139.637,395.636,139.637c-0.002,0-0.002,0-0.003,0c-31.078,0-60.3,12.103-82.277,34.081
	s-34.082,51.2-34.082,82.282l-0.002,77.58c0,38.495,31.32,69.814,69.82,69.818c38.498-0.005,69.817-31.325,69.817-69.823V251.5
	c0-12.853-10.42-23.273-23.273-23.273c-12.853,0-23.273,10.42-23.273,23.273v82.075c0,12.833-10.44,23.276-23.271,23.277
	c-12.833,0-23.274-10.442-23.274-23.271l0.002-77.582c0-18.648,7.263-36.181,20.451-49.368
	c13.186-13.188,30.718-20.449,49.366-20.449c38.498,0,69.818,31.319,69.82,69.815v93.094
	c-0.002,64.163-52.202,116.364-116.364,116.364c-31.083,0.002-60.304-12.102-82.281-34.081
	c-6.865-6.865-12.767-14.438-17.638-22.553c-0.144-0.24-0.272-0.487-0.414-0.728c-10.443-17.693-16.03-37.916-16.03-59.003v-81.4
	c0.002-0.375-0.036-0.745-0.053-1.117c-0.006-0.126-0.012-0.253-0.02-0.377c-0.011-0.31-0.017-0.621-0.047-0.926
	c-0.079-0.782-0.197-1.555-0.352-2.313c-0.022-0.107-0.057-0.209-0.081-0.316c-0.138-0.628-0.292-1.252-0.479-1.86
	c-0.123-0.4-0.281-0.787-0.424-1.178c-0.113-0.309-0.214-0.625-0.34-0.928c-0.183-0.436-0.399-0.856-0.607-1.282
	c-0.123-0.248-0.228-0.503-0.358-0.746c-0.208-0.386-0.444-0.754-0.673-1.128c-0.163-0.267-0.315-0.545-0.487-0.804
	c-0.203-0.301-0.428-0.585-0.642-0.877c-0.233-0.315-0.458-0.639-0.706-0.942c-0.169-0.208-0.36-0.4-0.537-0.604
	c-0.321-0.365-0.636-0.734-0.979-1.077c-0.127-0.127-0.268-0.242-0.397-0.366c-0.414-0.396-0.827-0.788-1.269-1.153
	c-0.093-0.078-0.196-0.144-0.292-0.222c-0.487-0.391-0.985-0.773-1.503-1.125c-0.102-0.068-0.211-0.126-0.312-0.192
	c-0.521-0.341-1.052-0.673-1.6-0.971c-0.251-0.135-0.517-0.248-0.773-0.375c-0.416-0.206-0.824-0.42-1.252-0.602
	c-1.42-0.604-2.912-1.069-4.462-1.382c-1.496-0.303-3.044-0.464-4.63-0.464C197.589,244.366,187.816,253.255,186.384,264.734z"/>
<path style="fill:#fff;" d="M232.656,266.197c-0.068-1.1-0.183-2.186-0.399-3.24c0.155,0.759,0.273,1.53,0.352,2.313
	C232.639,265.577,232.645,265.889,232.656,266.197z"/>
<path style="fill:#fff;" d="M81.068,97.358c0,53.684,43.674,97.358,97.358,97.358s97.359-43.674,97.359-97.358
	S232.11,0.001,178.426,0.001S81.068,43.674,81.068,97.358z"/>
<path style="fill:#A4E276;" d="M23.274,442.958h192.621c-5.235-7.398-9.81-15.18-13.708-23.273
	c-3.615-7.509-6.648-15.284-9.061-23.273c-4.574-15.147-6.946-31.052-6.945-47.321v-61.037v-20.416c0-0.985,0.081-1.95,0.2-2.904
	c1.432-11.48,11.205-20.368,23.073-20.368c1.587,0,3.134,0.161,4.63,0.464c-11.669-2.368-23.667-3.568-35.66-3.568
	C80.041,241.261,0,321.302,0,419.686C0.002,432.538,10.422,442.958,23.274,442.958z"/>
<g>
	<path style="fill:#fff;" d="M232.729,267.639c0-0.375-0.037-0.743-0.056-1.114c0,0.017,0.002,0.034,0.003,0.051
		C232.692,266.93,232.729,267.28,232.729,267.639z"/>
	<path style="fill:#ffffff;" d="M232.729,267.691v-0.053c0-0.36-0.037-0.709-0.053-1.064
		C232.693,266.947,232.73,267.316,232.729,267.691z"/>
</g>
<path style="fill:#ffffff;" d="M81.068,97.358c0,53.684,43.674,97.358,97.358,97.358c0.259,0,0.515-0.017,0.776-0.02V0.021
	c-0.261-0.003-0.517-0.02-0.776-0.02C124.742,0.001,81.068,43.674,81.068,97.358z"/>
<path style="fill:#ffffff;" d="M0.002,419.686c0,12.853,10.42,23.273,23.273,23.273h155.927V241.271
	c-0.259-0.002-0.517-0.009-0.776-0.009C80.043,241.261,0.002,321.302,0.002,419.686z"/>
<g>
	<path style="fill:#ffffff;" d="M395.636,139.637c-0.002,0-0.002,0-0.003,0c-31.078,0-60.3,12.103-82.277,34.081
		c-21.977,21.979-34.082,51.2-34.082,82.282l-0.002,69.82h46.545l0.002-69.82c0-18.649,7.263-36.181,20.451-49.368
		c13.186-13.188,30.718-20.449,49.366-20.449c38.498,0,69.818,31.32,69.82,69.815v69.821h46.545v-69.821
		C512,191.836,459.799,139.637,395.636,139.637z"/>
	<path style="fill:#fff;" d="M232.729,267.691c0.002-0.375-0.034-0.745-0.053-1.117c-0.006-0.126-0.012-0.253-0.02-0.377
		c-0.011-0.31-0.017-0.621-0.047-0.926c-0.079-0.782-0.197-1.555-0.352-2.313c-0.022-0.107-0.057-0.209-0.081-0.316
		c-0.138-0.628-0.292-1.252-0.479-1.86c-0.123-0.4-0.281-0.787-0.424-1.178c-0.113-0.309-0.214-0.625-0.34-0.928
		c-0.183-0.436-0.399-0.856-0.607-1.282c-0.123-0.248-0.228-0.503-0.358-0.746c-0.208-0.386-0.444-0.754-0.673-1.128
		c-0.163-0.267-0.315-0.545-0.487-0.805c-0.203-0.301-0.428-0.585-0.642-0.877c-0.233-0.315-0.458-0.639-0.706-0.942
		c-0.169-0.208-0.358-0.4-0.537-0.604c-0.321-0.365-0.636-0.734-0.979-1.077c-0.127-0.127-0.268-0.242-0.397-0.366
		c-0.414-0.396-0.827-0.788-1.269-1.153c-0.093-0.078-0.196-0.144-0.292-0.222c-0.487-0.391-0.985-0.774-1.503-1.125
		c-0.101-0.068-0.211-0.126-0.312-0.192c-0.521-0.341-1.052-0.673-1.6-0.971c-0.251-0.135-0.517-0.248-0.773-0.375
		c-0.416-0.206-0.824-0.42-1.252-0.602c-1.42-0.604-2.912-1.069-4.462-1.382c-1.496-0.303-3.044-0.464-4.63-0.464
		c-11.868,0-21.641,8.889-23.073,20.368c-0.119,0.954-0.2,1.918-0.2,2.904v20.416v37.767h46.545v-58.128H232.729z"/>
	<path style="fill:#fff;" d="M395.636,228.227c-12.853,0-23.273,10.42-23.273,23.273v74.319h46.545V251.5
		C418.909,238.646,408.489,228.227,395.636,228.227z"/>
</g>
<g>
</g>
<g>
</g>
<g>
</g>
<g>
</g>
<g>
</g>
<g>
</g>
<g>
</g>
<g>
</g>
<g>
</g>
<g>
</g>
<g>
</g>
<g>
</g>
<g>
</g>
<g>
</g>
<g>
</g>
</svg>
